<svg id="Layer_1" data-name="Layer 1" xmlns="http://www.w3.org/2000/svg" viewBox="0 0 47.5 61"><title>bp logo adil</title><path d="M67.2,50.4A23.5,23.5,0,0,1,43.7,73.9H40.9V49.9c0-2.1.8-3.1,2.5-3.1s2.4.7,2.4,2.3-1,2.5-3.2,2.5v9.6h1.7c4,0,7.1-1,9.1-3.1a11.5,11.5,0,0,0,3.4-8.7,13,13,0,0,0-3.7-9.3,12.6,12.6,0,0,0-9.2-3.8A13.7,13.7,0,0,0,38,37.6,13.5,13.5,0,0,0,33.3,41a12.2,12.2,0,0,0-2.4,4.3,18.7,18.7,0,0,0-.7,5.8v19a23.6,23.6,0,0,1-5-4.4c-3.6-4.4-5.4-10-5.4-16.9V13.3a12.7,12.7,0,0,1,3.4-.4,14.6,14.6,0,0,1,10.6,4.5,11.2,11.2,0,0,1,2.9,7.5V28a20.5,20.5,0,0,1,7-1.1A23.5,23.5,0,0,1,67.2,50.4Z" transform="translate(-19.8 -12.9)"/></svg>